<svg width="61" height="60" viewBox="0 0 61 60" fill="none" xmlns="http://www.w3.org/2000/svg">
<rect x="0.5" width="60" height="60" fill="#68B738"/>
<path fill-rule="evenodd" clip-rule="evenodd" d="M37.6173 15.0761C37.991 14.9214 38.4211 15.0069 38.7071 15.2929C39.6156 16.2014 40.8038 18.1706 41.7659 21.2108C42.7373 24.2804 43.5 28.5081 43.5 34C43.5 34.5523 43.0523 35 42.5 35H39V44C39 44.5523 38.5523 45 38 45C37.4477 45 37 44.5523 37 44V16C37 15.5956 37.2436 15.2309 37.6173 15.0761ZM39 33H41.4912C41.4053 28.1836 40.7051 24.4875 39.8591 21.8142C39.5807 20.9346 39.2885 20.1715 39 19.519V33Z" fill="white"/>
<path fill-rule="evenodd" clip-rule="evenodd" d="M25 15C25.5523 15 26 15.4477 26 16V44C26 44.5523 25.5523 45 25 45C24.4477 45 24 44.5523 24 44V16C24 15.4477 24.4477 15 25 15Z" fill="white"/>
<path fill-rule="evenodd" clip-rule="evenodd" d="M20.5 15C21.0523 15 21.5 15.4477 21.5 16V21.5C21.5 22.0569 21.692 22.8152 22.2009 23.4166C22.68 23.9828 23.5145 24.5 24.9999 24.5C25.5522 24.5 25.9999 24.9477 25.9999 25.5C25.9999 26.0523 25.5522 26.5 24.9999 26.5C22.9855 26.5 21.57 25.7672 20.6741 24.7084C19.808 23.6848 19.5 22.4431 19.5 21.5V16C19.5 15.4477 19.9477 15 20.5 15Z" fill="white"/>
<path fill-rule="evenodd" clip-rule="evenodd" d="M29.5 15C28.9477 15 28.5 15.4477 28.5 16V21.5C28.5 22.0569 28.308 22.8152 27.7991 23.4166C27.32 23.9828 26.4854 24.5 24.9999 24.5C24.4476 24.5 24.0001 24.9477 24.0001 25.5C24.0001 26.0523 24.4476 26.5 24.9999 26.5C27.0144 26.5 28.43 25.7672 29.3259 24.7084C30.192 23.6848 30.5 22.4431 30.5 21.5V16C30.5 15.4477 30.0523 15 29.5 15Z" fill="white"/>
</svg>
